<svg width="17" height="17" viewBox="0 0 17 17" fill="none" xmlns="http://www.w3.org/2000/svg">
<path opacity="0.6" fill-rule="evenodd" clip-rule="evenodd" d="M13 2H4C2.89543 2 2 2.89543 2 4V13C2 14.1046 2.89543 15 4 15H9V10H7V8H9V7.61905C9 6.78266 9.08573 6.08987 9.30536 5.53845C9.54356 4.94038 9.93726 4.51823 10.4698 4.2822C10.9389 4.07426 11.4402 4.0495 11.8054 4.04118C11.9298 4.03835 12.0438 4.03737 12.1521 4.03645C12.4126 4.03422 12.6396 4.03229 12.8958 4.00544C13.4451 3.9479 13.937 4.34653 13.9946 4.89581C14.0521 5.44509 13.6535 5.93701 13.1042 5.99456C12.7442 6.03228 12.3741 6.03533 12.088 6.0377H12.088C12.0002 6.03842 11.9202 6.03908 11.8509 6.04066C11.4973 6.04872 11.3527 6.07851 11.2802 6.11065L11.2775 6.11164C11.2643 6.11614 11.2224 6.13037 11.1634 6.27851C11.0809 6.48553 11 6.884 11 7.61905V8H13V10H11V15H13C14.1046 15 15 14.1046 15 13V4C15 2.89543 14.1046 2 13 2ZM13 17H10H4C1.79086 17 0 15.2091 0 13V4C0 1.79086 1.79086 0 4 0H13C15.2091 0 17 1.79086 17 4V13C17 15.2091 15.2091 17 13 17Z" fill="#333D3C"/>
</svg>
