<svg width="17" height="17" viewBox="0 0 17 17" fill="none" xmlns="http://www.w3.org/2000/svg">
<g opacity="0.6">
<path fill-rule="evenodd" clip-rule="evenodd" d="M13 2H4C2.89543 2 2 2.89543 2 4V13C2 14.1046 2.89543 15 4 15H13C14.1046 15 15 14.1046 15 13V4C15 2.89543 14.1046 2 13 2ZM4 0C1.79086 0 0 1.79086 0 4V13C0 15.2091 1.79086 17 4 17H13C15.2091 17 17 15.2091 17 13V4C17 1.79086 15.2091 0 13 0H4ZM8.5 11C9.88071 11 11 9.88071 11 8.5C11 7.11929 9.88071 6 8.5 6C7.11929 6 6 7.11929 6 8.5C6 9.88071 7.11929 11 8.5 11ZM8.5 13C10.9853 13 13 10.9853 13 8.5C13 6.01472 10.9853 4 8.5 4C6.01472 4 4 6.01472 4 8.5C4 10.9853 6.01472 13 8.5 13ZM13 5C13.5523 5 14 4.55228 14 4C14 3.44772 13.5523 3 13 3C12.4477 3 12 3.44772 12 4C12 4.55228 12.4477 5 13 5Z" fill="#333D3C"/>
</g>
</svg>
